<svg xmlns="http://www.w3.org/2000/svg" viewBox="0 0 753 753">
  <defs>
    <style>
      .cls-1 {
        fill: #a1eafc;
      }

      .cls-2 {
        fill: #c7c7c7;
      }

      .cls-3, .cls-4 {
        fill: #fff;
      }

      .cls-3 {
        stroke: #c7c7c7;
        stroke-width: 10px;
      }

      .cls-5 {
        fill: #585858;
      }

      .cls-6 {
        fill: #7c7c7c;
      }

      .cls-7, .cls-9 {
        fill: none;
      }

      .cls-7 {
        stroke: #fff;
        stroke-width: 90px;
      }

      .cls-8 {
        stroke: none;
      }
    </style>
  </defs>
  <g id="Group_7" data-name="Group 7" transform="translate(-891 -128)">
    <g id="Group_6" data-name="Group 6" transform="translate(-858.473 358.871)">
      <rect id="Rectangle_14" data-name="Rectangle 14" class="cls-1" width="114.135" height="83.5" rx="9" transform="translate(2062.365 88.716)"/>
      <rect id="Rectangle_12" data-name="Rectangle 12" class="cls-2" width="77.23" height="102.784" rx="9" transform="translate(2099.271 69.243)"/>
      <g id="Rectangle_11" data-name="Rectangle 11" class="cls-3" transform="translate(2185.946 -20)">
        <rect class="cls-8" width="247.541" height="247.271" rx="9"/>
        <rect class="cls-9" x="5" y="5" width="237.541" height="237.271" rx="4"/>
      </g>
      <path id="Rectangle_13" data-name="Rectangle 13" class="cls-4" d="M9,0H190.5a0,0,0,0,1,0,0V116.135a9,9,0,0,1-9,9H9a9,9,0,0,1-9-9V9A9,9,0,0,1,9,0Z" transform="translate(1986 150.054)"/>
      <path id="Rectangle_15" data-name="Rectangle 15" class="cls-2" d="M0,0H466.947a9,9,0,0,1,9,9V30.473a9,9,0,0,1-9,9H9a9,9,0,0,1-9-9V0A0,0,0,0,1,0,0Z" transform="translate(1986 235.717)"/>
      <circle id="Ellipse_9" data-name="Ellipse 9" class="cls-5" cx="41.189" cy="41.189" r="41.189" transform="translate(2033.892 252.879)"/>
      <circle id="Ellipse_11" data-name="Ellipse 11" class="cls-5" cx="41.189" cy="41.189" r="41.189" transform="translate(2351.555 252.879)"/>
      <circle id="Ellipse_12" data-name="Ellipse 12" class="cls-6" cx="27.189" cy="27.189" r="27.189" transform="translate(2047.892 266.879)"/>
      <circle id="Ellipse_13" data-name="Ellipse 13" class="cls-6" cx="27.189" cy="27.189" r="27.189" transform="translate(2365.892 266.879)"/>
      <path id="Rectangle_16" data-name="Rectangle 16" class="cls-4" d="M9,0H29a0,0,0,0,1,0,0V81a0,0,0,0,1,0,0H0a0,0,0,0,1,0,0V9A9,9,0,0,1,9,0Z" transform="translate(2099.473 69.129)"/>
    </g>
    <g id="Ellipse_8" data-name="Ellipse 8" class="cls-7" transform="translate(981 218)">
      <circle class="cls-8" cx="286.5" cy="286.5" r="286.5"/>
      <circle class="cls-9" cx="286.5" cy="286.5" r="331.5"/>
    </g>
  </g>
</svg>
